<svg width="64" height="64" viewBox="0 0 64 64" fill="none" xmlns="http://www.w3.org/2000/svg">
<rect x="8.56055" y="8.56006" width="46.8787" height="46.8787" rx="8" fill="#5AFEAE"/>
<path d="M38.8804 40.1559C38.0547 40.5624 37.1469 40.7734 36.2263 40.7692C34.2435 40.7692 33.119 40.4519 32.9958 38.8501V38.7425C32.9958 38.6788 32.9887 38.6221 32.9887 38.5485V33.8818L32.9958 33.3323V30.0423H32.9887V28.6445L32.9958 28.0907V24.914L28.0785 25.5626C31.4039 24.9197 33.313 22.2882 33.313 19.6653V18.0493H27.7881V25.6037L27.4766 25.6915V39.6829C27.6593 43.6131 30.2482 45.9499 34.4984 45.9499C36.0011 45.9499 37.6553 45.6086 38.9215 45.0336L38.9498 45.0223V40.1149L38.879 40.1574V40.1559H38.8804Z" fill="#292929"/>
<path d="M39.752 23.7822L24.248 26.1715V30.1031L39.752 27.7138V23.7822Z" fill="#292929"/>
<path d="M39.752 29.5337L24.248 31.9229V35.6789L39.752 33.2882V29.5337Z" fill="#292929"/>
</svg>
